<?xml version="1.0" encoding="utf-8"?>
<!-- Generator: Adobe Illustrator 23.1.0, SVG Export Plug-In . SVG Version: 6.00 Build 0)  -->
<svg version="1.1" id="Layer_1" xmlns="http://www.w3.org/2000/svg" xmlns:xlink="http://www.w3.org/1999/xlink" x="0px" y="0px"
	 viewBox="0 0 18 18" style="enable-background:new 0 0 18 18;" xml:space="preserve">
<style type="text/css">
	.st0{fill:#FFFFFF;stroke:#000000;stroke-width:0.25;stroke-miterlimit:10;}
</style>
<path class="st0" d="M16.95,1c0.08,0.02,0.02,0.07,0.05,0.1c-0.09,0.39-0.19,0.79-0.26,1.19C16.61,3,16.44,3.7,16.29,4.41
	c-0.15,0.72-0.31,1.43-0.47,2.15c-0.15,0.71-0.3,1.42-0.45,2.13c-0.16,0.74-0.33,1.48-0.49,2.23c-0.12,0.54-0.23,1.09-0.35,1.63
	c-0.01,0.04,0,0.08-0.06,0.11c-0.23-0.06-0.44-0.16-0.66-0.24c-0.85-0.31-1.69-0.63-2.53-0.94c-0.82-0.3-1.63-0.61-2.45-0.91
	c-0.64-0.23-1.26-0.47-1.9-0.7c-0.05-0.02-0.1-0.03-0.15-0.05C6.72,9.79,6.67,9.8,6.64,9.85c-0.08,0.1-0.16,0.2-0.23,0.3
	c-0.43,0.55-0.86,1.1-1.28,1.65c-0.45,0.57-0.89,1.15-1.34,1.72c-0.41,0.53-0.82,1.05-1.23,1.58c-0.5,0.63-1,1.26-1.49,1.9
	c-0.12-0.03-0.06-0.08-0.04-0.13c0.11-0.56,0.23-1.12,0.34-1.68c0.16-0.78,0.33-1.56,0.5-2.34c0.16-0.73,0.31-1.45,0.47-2.18
	c0.13-0.63,0.26-1.25,0.4-1.88C2.87,8.18,3,7.57,3.13,6.96C3.26,6.33,3.4,5.7,3.54,5.07C3.55,5,3.57,4.93,3.59,4.85
	C4,5.01,4.4,5.14,4.79,5.29C5.63,5.59,6.47,5.9,7.31,6.2c1.38,0.5,2.76,1,4.14,1.51c0.11,0.04,0.15,0.03,0.21-0.04
	c0.39-0.51,0.81-1.01,1.2-1.52c0.34-0.45,0.71-0.88,1.06-1.33c0.65-0.82,1.3-1.64,1.95-2.46C16.23,1.91,16.59,1.45,16.95,1z"/>
</svg>
