<?xml version="1.0" encoding="utf-8"?>
<!-- Generator: Adobe Illustrator 23.1.0, SVG Export Plug-In . SVG Version: 6.00 Build 0)  -->
<svg version="1.1" id="Layer_1" xmlns="http://www.w3.org/2000/svg" xmlns:xlink="http://www.w3.org/1999/xlink" x="0px" y="0px"
	 viewBox="0 0 1080 1080" style="enable-background:new 0 0 1080 1080;" xml:space="preserve">
<style type="text/css">
	.st0{opacity:0.2;}
	.st1{fill:#FFCD05;}
	.st2{fill:#E6E7E8;}
	.st3{opacity:0.5;fill:#E6E7E8;}
	.st4{enable-background:new    ;}
	.st5{clip-path:url(#SVGID_2_);enable-background:new    ;}
	.st6{fill:#4D4D4D;}
	.st7{clip-path:url(#SVGID_4_);enable-background:new    ;}
	.st8{fill:#A0A0A0;}
	.st9{fill:#9C9C9C;}
	.st10{fill:#989898;}
	.st11{fill:#949494;}
	.st12{fill:#909090;}
	.st13{fill:#8C8C8C;}
	.st14{fill:#888888;}
	.st15{fill:#848484;}
	.st16{fill:#B4B4B4;}
	.st17{clip-path:url(#SVGID_6_);enable-background:new    ;}
	.st18{clip-path:url(#SVGID_8_);enable-background:new    ;}
	.st19{clip-path:url(#SVGID_10_);enable-background:new    ;}
	.st20{clip-path:url(#SVGID_12_);enable-background:new    ;}
	.st21{fill:#858585;}
	.st22{clip-path:url(#SVGID_14_);enable-background:new    ;}
	.st23{fill:#808080;}
	.st24{fill:#D2D2D2;}
	.st25{fill:#9E9E9E;}
	.st26{fill:#C2C2C2;}
	.st27{fill:#1A1A1A;}
	.st28{fill:#E6E7E8;stroke:#FFFFFF;stroke-miterlimit:10;}
	.st29{fill:#4F4F51;}
	.st30{fill:#6D6E71;stroke:#6D6E71;stroke-miterlimit:10;}
</style>
<g class="st0">
	<path class="st1" d="M934.47,453.17c0,218.36-187.89,395.38-419.66,395.38c-288.47,0-475.52-313.63-419.66-395.38
		c41.99-61.45,210.82,23.38,320.8-65.1c123.3-99.19,19.33-292.86,98.86-330.28C608.22,13.83,934.47,195.17,934.47,453.17z"/>
	<path class="st2" d="M935.47,453.17c0.14,27.37-2.7,54.76-8.41,81.57c-5.71,26.81-14.32,53.01-25.58,78.07
		c-11.26,25.05-25.11,48.99-41.35,71.26c-16.19,22.29-34.65,42.99-55.03,61.68c-20.37,18.69-42.61,35.42-66.32,49.83
		c-23.72,14.38-48.85,26.54-74.97,36.12c-26.12,9.59-53.2,16.64-80.71,21.06c-3.42,0.68-6.89,1-10.34,1.48l-10.37,1.34
		c-3.45,0.51-6.93,0.74-10.4,1.02l-10.42,0.83c-1.74,0.12-3.47,0.3-5.21,0.38l-5.23,0.16l-10.45,0.32l-5.23,0.16
		c-1.74,0.03-3.5-0.02-5.24-0.03c-3.5-0.06-7-0.03-10.49-0.15c-13.99-0.46-27.94-1.73-41.81-3.58l-10.38-1.53l-10.33-1.86
		l-2.58-0.47l-2.57-0.54l-5.13-1.1l-5.13-1.1l-5.1-1.25l-5.09-1.26l-2.55-0.63l-2.53-0.71l-10.09-2.87l-10-3.17
		c-1.67-0.51-3.32-1.08-4.97-1.67l-4.95-1.73c-13.17-4.69-26.13-9.97-38.79-15.85c-12.66-5.91-25-12.45-37.06-19.47
		c-2.99-1.79-6.03-3.51-8.98-5.36l-8.86-5.55l-8.72-5.76c-2.91-1.92-5.73-3.96-8.6-5.94c-22.74-16.1-44.15-34.02-63.96-53.54
		c-19.79-19.54-38.08-40.57-54.57-62.96c-16.47-22.4-31.17-46.16-43.32-71.33c-6.04-12.6-11.51-25.52-15.9-38.91l-1.63-5.03
		c-0.53-1.68-0.99-3.39-1.49-5.08c-1.03-3.38-1.84-6.84-2.72-10.27c-0.42-1.72-0.76-3.47-1.15-5.21l-0.56-2.61l-0.48-2.64
		c-0.31-1.76-0.64-3.51-0.92-5.28l-0.72-5.34c-0.83-7.15-1.26-14.42-0.97-21.79c0.31-7.37,1.4-14.87,3.71-22.25
		c0.24-0.93,0.61-1.84,0.95-2.75l1.04-2.74c0.31-0.92,0.8-1.8,1.22-2.69l1.31-2.67c0.95-1.75,2.07-3.44,3.11-5.14
		c1.21-1.62,2.37-3.28,3.75-4.77c1.3-1.56,2.79-2.93,4.24-4.34c1.54-1.29,3.06-2.63,4.71-3.74c1.6-1.21,3.31-2.19,4.99-3.22
		c1.73-0.9,3.44-1.88,5.21-2.63c7.04-3.24,14.3-5.1,21.46-6.42c7.18-1.29,14.29-1.91,21.34-2.28c14.1-0.68,27.93-0.22,41.65,0.36
		c13.71,0.61,27.31,1.4,40.86,1.93c13.55,0.54,27.04,0.81,40.47,0.51c26.81-0.64,53.55-3.62,78.7-11.69
		c12.57-3.97,24.66-9.29,36.01-15.87c11.31-6.62,21.88-14.57,31.31-23.65c4.74-4.52,9.1-9.41,13.23-14.47
		c4.11-5.09,7.8-10.5,11.23-16.07c3.45-5.57,6.41-11.44,9.13-17.42c1.38-2.98,2.58-6.05,3.81-9.11c1.13-3.1,2.28-6.19,3.26-9.35
		c4.08-12.58,6.82-25.64,8.71-38.87c1.84-13.25,2.84-26.66,3.27-40.16c0.46-13.49,0.38-27.06,0.22-40.67
		c-0.17-13.62-0.46-27.3-0.28-41.08c0.21-13.77,0.79-27.7,3.34-41.65c1.31-6.96,3.08-13.95,5.92-20.7
		c2.85-6.71,6.68-13.28,11.99-18.69c2.58-2.76,5.57-5.12,8.68-7.23c1.6-0.98,3.17-2.03,4.86-2.83c0.84-0.42,1.66-0.87,2.51-1.25
		l2.57-1.06c6.88-2.76,14.04-4.24,21.14-5c7.11-0.74,14.22-0.81,21.23-0.31c7.01,0.48,13.97,1.3,20.81,2.58
		c3.45,0.55,6.82,1.36,10.23,2.04l5.06,1.23c1.69,0.41,3.37,0.82,5.03,1.3l5.01,1.38c1.67,0.46,3.31,1,4.97,1.5
		c3.32,0.98,6.59,2.09,9.86,3.19c13.08,4.44,25.84,9.7,38.32,15.49c24.96,11.61,48.79,25.44,71.5,40.84
		c22.69,15.42,44.26,32.46,64.42,51.02c20.18,18.52,39.02,38.52,56.06,59.95c17.05,21.42,32.25,44.3,45.1,68.46
		c12.76,24.2,23.07,49.71,30.2,76.14C931.56,398.45,935.29,425.78,935.47,453.17z M933.47,453.17
		c-0.01-27.21-3.56-54.41-10.59-80.72c-7.08-26.29-17.42-51.67-30.29-75.66c-12.95-23.96-28.42-46.5-45.59-67.6
		c-17.24-21.06-36.34-40.55-56.67-58.6c-20.37-18.01-42.1-34.46-64.86-49.26c-22.76-14.79-46.6-27.92-71.34-38.89
		c-12.37-5.48-24.98-10.4-37.82-14.51c-12.84-4.09-25.88-7.54-39.07-9.68c-6.59-1.14-13.22-1.83-19.82-2.2
		c-6.61-0.38-13.21-0.22-19.65,0.54c-12.84,1.5-25.31,5.81-33.59,14.87c-4.24,4.39-7.37,9.85-9.79,15.68
		c-2.4,5.86-3.96,12.2-5.1,18.64c-2.23,12.94-2.69,26.41-2.76,39.9c-0.03,27.03,1.57,54.41,0.89,81.99
		c-0.3,13.79-1.18,27.64-2.96,41.45c-1.83,13.8-4.56,27.58-8.77,41.02c-1.01,3.37-2.21,6.69-3.38,10.01
		c-1.28,3.29-2.53,6.59-3.99,9.82c-2.85,6.47-6,12.83-9.67,18.91c-3.65,6.08-7.61,12-12.02,17.58c-4.43,5.55-9.12,10.91-14.21,15.87
		c-10.15,9.93-21.48,18.59-33.66,25.86c-12.2,7.22-25.2,13.05-38.62,17.41c-13.4,4.44-27.18,7.44-41.01,9.5
		c-13.84,2.05-27.75,3.07-41.6,3.53c-27.72,0.87-55.22-0.77-82.34-1.78c-13.55-0.47-27.03-0.78-40.2-0.03
		c-6.57,0.39-13.08,1.03-19.33,2.21c-6.23,1.2-12.27,2.85-17.62,5.38c-1.37,0.58-2.61,1.34-3.91,2.01c-1.2,0.78-2.47,1.49-3.57,2.36
		c-1.18,0.8-2.2,1.75-3.28,2.64c-0.97,0.99-2.01,1.92-2.88,3.01c-3.68,4.13-6.21,9.34-7.95,14.98c-1.71,5.67-2.6,11.79-2.79,18.05
		c-0.19,6.27,0.24,12.66,1.04,19.05c0.79,6.4,2.17,12.79,3.69,19.14c0.86,3.17,1.63,6.35,2.64,9.49c0.49,1.57,0.93,3.15,1.45,4.72
		l1.58,4.69c4.26,12.5,9.6,24.71,15.5,36.64c11.86,23.86,26.3,46.54,42.44,67.9c16.15,21.36,34.05,41.42,53.35,59.98
		c19.24,18.63,40.02,35.62,61.93,50.92c21.86,15.38,45.13,28.65,69.23,40.02c12.08,5.64,24.42,10.68,36.95,15.16l4.71,1.66
		c1.57,0.56,3.14,1.11,4.73,1.6l9.51,3.03c6.4,1.82,12.77,3.71,19.24,5.28l4.83,1.23l4.87,1.08l4.87,1.08l2.44,0.54l2.45,0.46
		l9.8,1.85l9.85,1.53c13.16,1.86,26.41,3.17,39.71,3.71c26.58,0.93,53.42-0.3,79.86-4.02c26.46-3.7,52.6-9.8,78-18.26
		c25.39-8.47,50.07-19.25,73.49-32.39c23.44-13.1,45.68-28.43,66.22-45.87c20.53-17.44,39.4-36.93,56.06-58.22
		c16.62-21.31,31.13-44.35,42.93-68.77c11.81-24.41,20.93-50.16,27.07-76.65c0.46-1.64,0.73-3.32,1.07-4.98l0.99-5l1.98-10
		c1.06-6.71,1.96-13.45,2.92-20.19l1.77-20.33L933.47,453.17z"/>
</g>
<path class="st3" d="M121.64,987.73c0-16.37,187.89-29.64,419.66-29.64c288.47,0,475.52,23.51,419.66,29.64
	c-41.99,4.61-210.82-1.75-320.8,4.88c-123.3,7.44-19.33,21.95-98.86,24.76C447.88,1020.67,121.64,1007.07,121.64,987.73z"/>
<g>
	<g>
		<g class="st4">
			<g class="st4">
				<defs>
					<path id="SVGID_1_" class="st4" d="M801.92,934.28L472.58,701.92c0.34-0.06,0.66-0.18,0.95-0.36c0.29-0.18,0.56-0.41,0.78-0.68
						c0.22-0.27,0.4-0.58,0.52-0.9c0.12-0.33,0.19-0.68,0.19-1.03l330.46,230.63c-0.04,0.51-0.17,1.03-0.37,1.52
						c-0.2,0.49-0.47,0.97-0.79,1.39c-0.32,0.43-0.7,0.8-1.1,1.11C802.81,933.91,802.37,934.14,801.92,934.28z"/>
				</defs>
				<clipPath id="SVGID_2_">
					<use xlink:href="#SVGID_1_"  style="overflow:visible;"/>
				</clipPath>
				<g class="st5">
					<path class="st6" d="M801.92,934.28L472.58,701.92c0.06-0.01,0.12-0.02,0.19-0.04c0.06-0.02,0.12-0.03,0.18-0.05
						c0.06-0.02,0.12-0.04,0.18-0.06c0.06-0.02,0.12-0.05,0.17-0.08l329.59,232.14c-0.08,0.05-0.16,0.1-0.24,0.14
						c-0.08,0.04-0.16,0.08-0.24,0.12c-0.08,0.04-0.16,0.07-0.25,0.1C802.09,934.23,802,934.25,801.92,934.28"/>
					<path class="st6" d="M802.89,933.83L473.3,701.69c0.03-0.02,0.07-0.03,0.1-0.05c0.03-0.02,0.07-0.04,0.1-0.06
						s0.07-0.04,0.1-0.06s0.06-0.04,0.1-0.06l329.74,231.97c-0.04,0.04-0.09,0.07-0.13,0.11c-0.05,0.04-0.09,0.07-0.14,0.1
						s-0.09,0.07-0.14,0.1C802.98,933.77,802.94,933.8,802.89,933.83"/>
					<path class="st6" d="M803.44,933.42L473.7,701.45c0.03-0.02,0.05-0.04,0.08-0.06c0.03-0.02,0.05-0.04,0.07-0.06
						c0.02-0.02,0.05-0.04,0.07-0.06c0.02-0.02,0.05-0.04,0.07-0.06l329.87,231.82c-0.03,0.03-0.07,0.07-0.1,0.1
						c-0.03,0.03-0.07,0.07-0.1,0.1c-0.03,0.03-0.07,0.06-0.11,0.1C803.51,933.36,803.48,933.39,803.44,933.42"/>
					<path class="st6" d="M803.86,933.03L473.99,701.22c0.02-0.02,0.04-0.04,0.06-0.06c0.02-0.02,0.04-0.04,0.06-0.06
						c0.02-0.02,0.04-0.04,0.06-0.06c0.02-0.02,0.04-0.04,0.06-0.07l329.97,231.66c-0.03,0.04-0.06,0.07-0.09,0.1
						c-0.03,0.03-0.06,0.07-0.09,0.1c-0.03,0.03-0.06,0.07-0.09,0.1C803.92,932.97,803.89,933,803.86,933.03"/>
					<path class="st6" d="M804.21,932.63L474.24,700.96c0.02-0.02,0.04-0.04,0.06-0.07c0.02-0.02,0.04-0.05,0.06-0.07
						c0.02-0.02,0.04-0.05,0.05-0.07c0.02-0.02,0.03-0.05,0.05-0.07l330.08,231.5c-0.03,0.04-0.05,0.08-0.08,0.11
						s-0.05,0.07-0.08,0.11c-0.03,0.04-0.05,0.07-0.08,0.11C804.27,932.56,804.24,932.59,804.21,932.63"/>
					<path class="st6" d="M804.53,932.19l-330.08-231.5c0.02-0.03,0.04-0.05,0.05-0.08s0.03-0.05,0.05-0.08
						c0.02-0.03,0.03-0.05,0.05-0.08c0.02-0.03,0.03-0.05,0.05-0.08l330.18,231.33c-0.02,0.04-0.05,0.08-0.07,0.13
						c-0.02,0.04-0.05,0.08-0.07,0.12c-0.02,0.04-0.05,0.08-0.08,0.12C804.59,932.11,804.56,932.15,804.53,932.19"/>
					<path class="st6" d="M804.83,931.69L474.66,700.37c0.02-0.03,0.03-0.07,0.05-0.1c0.02-0.03,0.03-0.07,0.05-0.1
						s0.03-0.07,0.04-0.1c0.01-0.03,0.03-0.07,0.04-0.1l330.28,231.12c-0.02,0.05-0.04,0.1-0.07,0.16c-0.02,0.05-0.05,0.1-0.07,0.16
						s-0.05,0.1-0.07,0.15C804.89,931.59,804.86,931.64,804.83,931.69"/>
					<path class="st6" d="M805.12,931.08L474.84,699.96c0.03-0.08,0.06-0.16,0.08-0.25c0.02-0.08,0.04-0.17,0.06-0.25
						c0.02-0.08,0.03-0.17,0.03-0.26c0.01-0.09,0.01-0.17,0.01-0.26l330.46,230.63c-0.01,0.13-0.03,0.25-0.05,0.38
						s-0.05,0.25-0.08,0.38c-0.03,0.13-0.07,0.25-0.11,0.37C805.21,930.83,805.17,930.96,805.12,931.08"/>
				</g>
			</g>
			<g>
				<polygon class="st6" points="571.45,1003.85 306.21,730.17 472.58,701.92 801.92,934.28 				"/>
			</g>
			<g>
				<polygon class="st6" points="805.48,929.58 475.02,698.95 473.22,422.77 837.76,513.77 				"/>
			</g>
			<g class="st4">
				<defs>
					<path id="SVGID_3_" class="st4" d="M786.97,937.22L461.32,702.73c1.48-0.25,2.88-0.78,4.15-1.51c1.27-0.74,2.41-1.68,3.37-2.78
						c0.96-1.09,1.73-2.33,2.26-3.65c0.53-1.32,0.82-2.72,0.81-4.15l330.49,227.33c-0.16,2.07-0.71,4.16-1.56,6.16
						c-0.86,2-2.02,3.93-3.41,5.66c-1.39,1.74-3.01,3.29-4.78,4.57C790.87,935.64,788.95,936.63,786.97,937.22z"/>
				</defs>
				<clipPath id="SVGID_4_">
					<use xlink:href="#SVGID_3_"  style="overflow:visible;"/>
				</clipPath>
				<g class="st7">
					<path class="st8" d="M786.97,937.22L461.32,702.73c0.29-0.05,0.58-0.11,0.87-0.18c0.29-0.07,0.57-0.15,0.85-0.24
						c0.28-0.09,0.56-0.19,0.83-0.3c0.27-0.11,0.54-0.23,0.8-0.36l326.86,233.47c-0.36,0.23-0.73,0.45-1.1,0.65
						c-0.37,0.2-0.75,0.39-1.13,0.57c-0.38,0.18-0.77,0.34-1.16,0.49C787.76,936.97,787.37,937.1,786.97,937.22"/>
					<path class="st9" d="M791.54,935.11L464.68,701.64c0.16-0.08,0.31-0.16,0.46-0.24c0.15-0.08,0.3-0.17,0.45-0.26
						c0.15-0.09,0.29-0.18,0.44-0.27c0.14-0.09,0.29-0.19,0.43-0.29L794.01,933.3c-0.2,0.17-0.4,0.33-0.6,0.49
						c-0.2,0.16-0.41,0.31-0.61,0.47s-0.41,0.3-0.63,0.44C791.96,934.83,791.75,934.97,791.54,935.11"/>
					<path class="st10" d="M794.01,933.3L466.46,700.59c0.11-0.08,0.23-0.16,0.34-0.25c0.11-0.08,0.22-0.17,0.33-0.26
						c0.11-0.09,0.22-0.18,0.32-0.27c0.11-0.09,0.21-0.18,0.31-0.28l328.09,232.03c-0.15,0.15-0.3,0.3-0.45,0.45
						s-0.3,0.29-0.46,0.44c-0.15,0.14-0.31,0.29-0.47,0.42C794.33,933.02,794.17,933.16,794.01,933.3"/>
					<path class="st11" d="M795.86,931.57L467.76,699.54c0.09-0.08,0.19-0.17,0.28-0.26s0.18-0.18,0.27-0.27
						c0.09-0.09,0.18-0.18,0.26-0.27c0.09-0.09,0.17-0.19,0.25-0.28l328.56,231.38c-0.12,0.15-0.24,0.3-0.37,0.45
						s-0.25,0.29-0.38,0.44c-0.13,0.14-0.26,0.29-0.39,0.43C796.12,931.3,795.99,931.44,795.86,931.57"/>
					<path class="st12" d="M797.38,929.84L468.82,698.46c0.08-0.09,0.16-0.18,0.24-0.28c0.08-0.09,0.15-0.19,0.23-0.28
						s0.15-0.19,0.22-0.29s0.14-0.2,0.21-0.3l328.99,230.71c-0.1,0.16-0.21,0.31-0.32,0.46c-0.11,0.15-0.22,0.31-0.33,0.46
						c-0.11,0.15-0.22,0.3-0.34,0.45S797.5,929.7,797.38,929.84"/>
					<path class="st13" d="M798.71,928.03L469.73,697.32c0.07-0.1,0.14-0.21,0.21-0.31c0.07-0.11,0.14-0.21,0.2-0.32
						c0.07-0.11,0.13-0.22,0.19-0.32s0.12-0.22,0.18-0.33l329.39,230c-0.09,0.17-0.19,0.34-0.28,0.51c-0.1,0.17-0.19,0.34-0.29,0.5
						c-0.1,0.17-0.2,0.33-0.31,0.5C798.93,927.7,798.82,927.87,798.71,928.03"/>
					<path class="st14" d="M799.91,926.03l-329.39-230c0.07-0.13,0.14-0.26,0.2-0.39s0.13-0.26,0.19-0.39s0.12-0.26,0.17-0.4
						c0.05-0.13,0.11-0.27,0.16-0.4l329.81,229.17c-0.08,0.2-0.17,0.41-0.25,0.61c-0.09,0.2-0.18,0.41-0.27,0.61s-0.19,0.4-0.29,0.6
						C800.12,925.64,800.02,925.83,799.91,926.03"/>
					<path class="st15" d="M801.04,923.62L471.23,694.44c0.11-0.3,0.21-0.61,0.29-0.93c0.08-0.31,0.16-0.63,0.21-0.95
						c0.06-0.32,0.1-0.64,0.13-0.96c0.03-0.32,0.04-0.65,0.04-0.97l330.49,227.33c-0.04,0.47-0.09,0.95-0.17,1.42
						c-0.08,0.47-0.17,0.95-0.29,1.42c-0.11,0.47-0.25,0.94-0.4,1.41C801.39,922.69,801.23,923.16,801.04,923.62"/>
				</g>
			</g>
			<g>
				<polygon class="st16" points="590.66,996.34 319.55,726.74 461.32,702.73 786.97,937.22 				"/>
			</g>
			<g class="st4">
				<defs>
					<path id="SVGID_5_" class="st4" d="M576.93,993.88c-89.09-89.99-178.18-179.97-267.27-269.96c0.58,0.58,1.24,1.1,1.97,1.52
						c0.73,0.43,1.52,0.77,2.36,1.02c0.84,0.25,1.74,0.4,2.67,0.45c0.93,0.05,1.9,0,2.89-0.17l271.11,269.61
						c-1.42,0.43-2.79,0.68-4.1,0.77c-1.31,0.09-2.57,0.02-3.74-0.2c-1.17-0.22-2.26-0.59-3.25-1.1
						C578.58,995.3,577.69,994.65,576.93,993.88z"/>
				</defs>
				<clipPath id="SVGID_6_">
					<use xlink:href="#SVGID_5_"  style="overflow:visible;"/>
				</clipPath>
				<g class="st17">
					<path class="st12" d="M576.93,993.88L309.65,723.92c0.06,0.06,0.13,0.13,0.19,0.19c0.07,0.06,0.13,0.12,0.2,0.18
						s0.14,0.12,0.2,0.18c0.07,0.06,0.14,0.12,0.21,0.17L578,994.82c-0.1-0.07-0.19-0.15-0.28-0.22c-0.09-0.08-0.18-0.15-0.27-0.23
						s-0.18-0.16-0.26-0.24C577.1,994.04,577.01,993.96,576.93,993.88"/>
					<path class="st11" d="M578,994.82L310.46,724.64c0.09,0.07,0.19,0.15,0.28,0.22c0.1,0.07,0.19,0.14,0.29,0.21
						c0.1,0.07,0.2,0.13,0.3,0.2c0.1,0.06,0.2,0.13,0.31,0.19l267.96,270.37c-0.14-0.07-0.28-0.15-0.42-0.23
						c-0.14-0.08-0.27-0.16-0.4-0.24c-0.13-0.08-0.26-0.17-0.39-0.26C578.25,995.01,578.13,994.91,578,994.82"/>
					<path class="st10" d="M579.59,995.82L311.63,725.45c0.11,0.07,0.23,0.13,0.35,0.19c0.12,0.06,0.24,0.12,0.36,0.18
						c0.12,0.06,0.24,0.11,0.37,0.17c0.12,0.05,0.25,0.11,0.38,0.16l268.49,270.46c-0.17-0.05-0.35-0.11-0.52-0.17
						c-0.17-0.06-0.34-0.12-0.5-0.19c-0.17-0.07-0.33-0.14-0.49-0.21C579.91,995.98,579.75,995.9,579.59,995.82"/>
					<path class="st9" d="M581.58,996.61L313.08,726.15c0.16,0.06,0.32,0.12,0.48,0.18c0.16,0.06,0.33,0.11,0.5,0.15
						c0.17,0.05,0.34,0.09,0.51,0.13c0.17,0.04,0.34,0.08,0.52,0.11l269.27,270.39c-0.24-0.02-0.48-0.04-0.72-0.07
						s-0.47-0.07-0.7-0.11c-0.23-0.04-0.46-0.09-0.69-0.14C582.02,996.73,581.8,996.68,581.58,996.61"/>
					<path class="st8" d="M584.36,997.11L315.09,726.72c0.35,0.07,0.7,0.12,1.07,0.15c0.36,0.03,0.73,0.05,1.1,0.06
						c0.37,0,0.75-0.01,1.13-0.04c0.38-0.03,0.77-0.08,1.16-0.15l271.11,269.61c-0.56,0.17-1.11,0.31-1.65,0.42
						c-0.54,0.11-1.08,0.2-1.6,0.27c-0.53,0.06-1.04,0.1-1.55,0.11C585.34,997.16,584.84,997.15,584.36,997.11"/>
				</g>
			</g>
			<g>
				<polygon class="st6" points="837.76,513.77 473.22,422.77 478.54,422.46 845,512.97 				"/>
			</g>
			<g class="st4">
				<defs>
					<path id="SVGID_7_" class="st4" d="M568.29,1003.22c-88.12-91.25-176.23-182.5-264.35-273.75c0.14,0.14,0.29,0.26,0.46,0.37
						c0.17,0.1,0.35,0.19,0.54,0.25c0.19,0.06,0.4,0.1,0.61,0.11c0.21,0.01,0.43,0,0.66-0.04l265.24,273.68
						c-0.32,0.1-0.64,0.15-0.94,0.17c-0.3,0.02-0.59,0-0.86-0.06c-0.27-0.06-0.52-0.15-0.75-0.27
						C568.68,1003.57,568.47,1003.41,568.29,1003.22z"/>
				</defs>
				<clipPath id="SVGID_8_">
					<use xlink:href="#SVGID_7_"  style="overflow:visible;"/>
				</clipPath>
				<g class="st18">
					<path class="st6" d="M568.29,1003.22L303.94,729.48c0.02,0.02,0.04,0.04,0.05,0.05s0.04,0.03,0.06,0.05
						c0.02,0.02,0.04,0.03,0.06,0.05s0.04,0.03,0.06,0.05l264.42,273.81c-0.03-0.02-0.05-0.04-0.08-0.06
						c-0.03-0.02-0.05-0.04-0.08-0.06c-0.03-0.02-0.05-0.04-0.07-0.07C568.34,1003.27,568.32,1003.25,568.29,1003.22"/>
					<path class="st6" d="M568.59,1003.49L304.17,729.68c0.02,0.02,0.05,0.04,0.07,0.05c0.02,0.02,0.05,0.03,0.07,0.05
						c0.02,0.02,0.05,0.03,0.07,0.05c0.02,0.02,0.05,0.03,0.07,0.04l264.52,273.85c-0.03-0.02-0.07-0.03-0.1-0.05
						c-0.03-0.02-0.07-0.04-0.1-0.06c-0.03-0.02-0.06-0.04-0.09-0.06C568.65,1003.53,568.62,1003.51,568.59,1003.49"/>
					<path class="st6" d="M568.98,1003.73L304.45,729.88c0.03,0.02,0.05,0.03,0.08,0.05s0.06,0.03,0.08,0.04s0.06,0.03,0.09,0.04
						s0.06,0.02,0.09,0.04l264.65,273.87c-0.04-0.01-0.08-0.02-0.12-0.04c-0.04-0.01-0.08-0.03-0.12-0.04
						c-0.04-0.02-0.08-0.03-0.11-0.05C569.05,1003.77,569.01,1003.75,568.98,1003.73"/>
					<path class="st6" d="M569.44,1003.91L304.79,730.04c0.04,0.01,0.07,0.03,0.11,0.04c0.04,0.01,0.07,0.02,0.11,0.03
						c0.04,0.01,0.08,0.02,0.11,0.03c0.04,0.01,0.08,0.02,0.12,0.02l264.83,273.86c-0.06,0-0.11-0.01-0.16-0.02
						c-0.05-0.01-0.11-0.01-0.16-0.02c-0.05-0.01-0.1-0.02-0.16-0.03C569.54,1003.94,569.49,1003.93,569.44,1003.91"/>
					<path class="st6" d="M570.07,1004.02L305.24,730.17c0.08,0.01,0.15,0.02,0.23,0.03s0.16,0.01,0.24,0.01
						c0.08,0,0.16,0,0.25-0.01c0.08-0.01,0.17-0.02,0.25-0.03l265.24,273.68c-0.12,0.04-0.24,0.07-0.36,0.09
						c-0.12,0.03-0.24,0.04-0.35,0.06c-0.12,0.01-0.23,0.02-0.34,0.03C570.29,1004.03,570.18,1004.03,570.07,1004.02"/>
				</g>
			</g>
			<g class="st4">
				<defs>
					<path id="SVGID_9_" class="st4" d="M568.29,1003.22c-88.12-91.25-176.23-182.5-264.35-273.75c-0.1-0.1-0.18-0.21-0.26-0.32
						c-0.08-0.12-0.14-0.24-0.2-0.37c-0.06-0.13-0.1-0.27-0.13-0.41c-0.03-0.14-0.05-0.29-0.06-0.45l264.22,273.09
						c0,0.23,0.01,0.45,0.04,0.66c0.03,0.21,0.08,0.41,0.15,0.59s0.15,0.36,0.25,0.52C568.05,1002.95,568.17,1003.09,568.29,1003.22
						z"/>
				</defs>
				<clipPath id="SVGID_10_">
					<use xlink:href="#SVGID_9_"  style="overflow:visible;"/>
				</clipPath>
				<g class="st19">
					<path class="st15" d="M568.29,1003.22L303.94,729.48c-0.1-0.1-0.18-0.21-0.26-0.32c-0.08-0.12-0.14-0.24-0.2-0.37
						c-0.06-0.13-0.1-0.27-0.13-0.41c-0.03-0.14-0.05-0.29-0.06-0.45l264.22,273.09c0,0.23,0.01,0.45,0.04,0.66
						c0.03,0.21,0.08,0.41,0.15,0.59s0.15,0.36,0.25,0.52C568.05,1002.95,568.17,1003.09,568.29,1003.22"/>
				</g>
			</g>
			<g class="st4">
				<defs>
					<path id="SVGID_11_" class="st4" d="M576.93,993.88c-89.09-89.99-178.18-179.97-267.27-269.96c-0.38-0.39-0.73-0.81-1.04-1.26
						c-0.31-0.45-0.58-0.93-0.8-1.44c-0.22-0.51-0.4-1.04-0.53-1.6c-0.13-0.56-0.21-1.14-0.24-1.74l266.75,267.41
						c-0.02,0.9,0.04,1.75,0.18,2.57c0.13,0.81,0.34,1.58,0.61,2.3c0.27,0.72,0.61,1.39,1,2.01
						C575.96,992.79,576.42,993.36,576.93,993.88z"/>
				</defs>
				<clipPath id="SVGID_12_">
					<use xlink:href="#SVGID_11_"  style="overflow:visible;"/>
				</clipPath>
				<g class="st20">
					<path class="st21" d="M576.93,993.88L309.65,723.92c-0.38-0.39-0.73-0.81-1.04-1.26c-0.31-0.45-0.58-0.93-0.8-1.44
						c-0.22-0.51-0.4-1.04-0.53-1.6c-0.13-0.56-0.21-1.14-0.24-1.74l266.75,267.41c-0.02,0.9,0.04,1.75,0.18,2.57
						c0.13,0.81,0.34,1.58,0.61,2.3c0.27,0.72,0.61,1.39,1,2.01C575.96,992.79,576.42,993.36,576.93,993.88"/>
				</g>
			</g>
			<g class="st4">
				<defs>
					<path id="SVGID_13_" class="st4" d="M561.61,1010.12L299.52,733.55c-0.28-0.3-0.54-0.62-0.77-0.97
						c-0.23-0.35-0.43-0.72-0.59-1.11c-0.17-0.39-0.3-0.8-0.4-1.23c-0.1-0.43-0.16-0.88-0.18-1.34l261.7,274.6
						c-0.01,0.69,0.04,1.35,0.14,1.98c0.1,0.63,0.25,1.22,0.45,1.78c0.2,0.56,0.45,1.08,0.74,1.56
						C560.9,1009.28,561.23,1009.72,561.61,1010.12z"/>
				</defs>
				<clipPath id="SVGID_14_">
					<use xlink:href="#SVGID_13_"  style="overflow:visible;"/>
				</clipPath>
				<g class="st22">
					<path class="st6" d="M561.61,1010.12L299.52,733.55c-0.28-0.3-0.54-0.62-0.77-0.97c-0.23-0.35-0.43-0.72-0.59-1.11
						c-0.17-0.39-0.3-0.8-0.4-1.23c-0.1-0.43-0.16-0.88-0.18-1.34l261.7,274.6c-0.01,0.69,0.04,1.35,0.14,1.98
						c0.1,0.63,0.25,1.22,0.45,1.78c0.2,0.56,0.45,1.08,0.74,1.56C560.9,1009.28,561.23,1009.72,561.61,1010.12"/>
				</g>
			</g>
			<g>
				<polygon class="st23" points="802.39,917.98 471.91,690.64 322.15,431.63 624.23,537.48 				"/>
			</g>
			<g>
				<polygon class="st10" points="624.23,537.48 322.15,431.63 473.22,422.77 837.76,513.77 				"/>
			</g>
			<g>
				<path class="st24" d="M624.23,537.48l178.16,380.5c-0.16,2.07-0.71,4.16-1.56,6.16c-0.86,2-2.02,3.93-3.41,5.66
					c-1.39,1.74-3.01,3.29-4.78,4.57c-1.77,1.27-3.68,2.26-5.67,2.85l-196.31,59.12c-2.36,0.71-4.6,0.94-6.63,0.74
					c-2.04-0.2-3.87-0.82-5.4-1.82c-1.53-1-2.76-2.37-3.6-4.04c-0.84-1.68-1.29-3.68-1.24-5.92l8.25-443.13L624.23,537.48z"/>
			</g>
			<g>
				<polygon class="st25" points="582.04,542.16 293.57,433.31 322.15,431.63 624.23,537.48 				"/>
			</g>
			<g>
				<polygon class="st23" points="573.79,985.29 307.04,717.89 293.57,433.31 582.04,542.16 				"/>
			</g>
			<g>
				<polygon class="st23" points="567.51,1001.02 303.29,727.93 289.06,433.57 575.32,542.91 				"/>
			</g>
			<g>
				<polygon class="st10" points="575.32,542.91 289.06,433.57 293.57,433.31 582.04,542.16 				"/>
			</g>
			<g>
				<path class="st26" d="M837.76,513.77l-32.28,415.8c-0.04,0.51-0.17,1.03-0.37,1.52c-0.2,0.49-0.47,0.97-0.79,1.39
					c-0.32,0.43-0.7,0.8-1.1,1.11c-0.41,0.31-0.85,0.54-1.3,0.68l-230.47,69.57c-0.55,0.17-1.08,0.21-1.55,0.15
					c-0.48-0.06-0.9-0.22-1.26-0.48c-0.36-0.26-0.65-0.6-0.84-1.03c-0.2-0.42-0.3-0.92-0.29-1.48l7.82-458.11l6.71-0.75
					l-8.25,443.13c-0.04,2.25,0.4,4.24,1.24,5.92c0.84,1.68,2.07,3.05,3.6,4.04c1.53,1,3.36,1.62,5.4,1.82
					c2.03,0.2,4.27-0.03,6.63-0.74l196.31-59.12c1.98-0.6,3.9-1.58,5.67-2.85c1.77-1.27,3.39-2.83,4.78-4.57
					c1.39-1.74,2.56-3.66,3.41-5.66c0.86-2,1.41-4.09,1.56-6.16l-178.16-380.5L837.76,513.77z"/>
			</g>
			<g>
				<polygon class="st6" points="566.13,543.93 282.9,433.94 289.06,433.57 575.32,542.91 				"/>
			</g>
			<g>
				<path class="st6" d="M845,512.97l-32.87,414.61c-0.12,1.55-0.52,3.12-1.12,4.61c-0.61,1.5-1.43,2.93-2.4,4.22
					c-0.98,1.29-2.11,2.44-3.34,3.37c-1.23,0.93-2.56,1.64-3.93,2.06l-230.03,70.22c-1.68,0.51-3.27,0.66-4.72,0.48
					c-1.45-0.18-2.75-0.67-3.84-1.45c-1.09-0.77-1.97-1.83-2.57-3.11c-0.6-1.28-0.92-2.8-0.9-4.5l6.86-459.56l9.19-1.02
					l-7.82,458.11c-0.01,0.56,0.09,1.06,0.29,1.48c0.2,0.42,0.48,0.77,0.84,1.03c0.36,0.26,0.79,0.42,1.26,0.48
					c0.48,0.06,1,0.01,1.55-0.15l230.47-69.57c0.45-0.14,0.89-0.37,1.3-0.68c0.41-0.31,0.78-0.68,1.1-1.11
					c0.32-0.43,0.59-0.9,0.79-1.39c0.2-0.49,0.33-1.01,0.37-1.52l32.28-415.8L845,512.97z"/>
			</g>
			<g>
				<polygon class="st6" points="559.27,1003.49 297.57,728.89 282.9,433.94 566.13,543.93 				"/>
			</g>
			<g>
				<polygon class="st27" points="855.58,439.23 849.7,512.45 845,512.97 837.76,513.77 624.23,537.48 582.04,542.16 575.32,542.91 
					566.13,543.93 561.05,544.49 562.18,461.8 				"/>
			</g>
			<g>
				<polygon class="st27" points="561.05,544.49 279.5,434.14 276.96,383.77 562.18,461.8 				"/>
			</g>
			<g>
				<polygon class="st27" points="562.18,461.8 276.96,383.77 481.78,375.58 855.58,439.23 				"/>
			</g>
		</g>
	</g>
</g>
<path class="st28" d="M741.96,769.37c-4.32-2.37-8.14-4.45-11.95-6.54c-8.16-4.48-16.35-8.91-24.45-13.5
	c-1.79-1.01-2.47-0.57-3.35,1.11c-8.3,15.88-16.68,31.72-25.03,47.57c-0.42,0.81-0.89,1.59-1.33,2.38
	c-0.22-0.06-0.44-0.11-0.65-0.17c4.19-29.23,8.39-58.46,12.65-88.17c13.36,7.16,26.38,14.13,39.62,21.22
	c8.72-16.25,17.37-32.36,26.01-48.46c0.26,0.08,0.51,0.16,0.77,0.24C750.17,712.95,746.11,740.86,741.96,769.37z"/>
<path class="st29" d="M697.01,404.61v-23.72h-16.84v23.95c-8.86,3.6-15.14,12.49-15.14,22.91c0,13.6,10.68,24.63,23.86,24.63
	s23.86-11.03,23.86-24.63C712.76,417.09,706.19,408.04,697.01,404.61z"/>
<path class="st29" d="M757.48,417.19v-26.07h-18.51v26.32c-9.74,3.95-16.64,13.72-16.64,25.18c0,14.95,11.74,27.07,26.23,27.07
	s26.23-12.12,26.23-27.07C774.78,430.91,767.57,420.97,757.48,417.19z"/>
<path class="st29" d="M592.82,384.54v-19.3h-13.7v19.49c-7.21,2.93-12.32,10.16-12.32,18.64c0,11.07,8.7,20.04,19.42,20.04
	s19.42-8.97,19.42-20.04C605.63,394.69,600.28,387.33,592.82,384.54z"/>
<path class="st29" d="M642.16,391.91v-21.22H627.1v21.42c-7.93,3.22-13.55,11.17-13.55,20.49c0,12.17,9.56,22.03,21.35,22.03
	c11.79,0,21.35-9.86,21.35-22.03C656.24,403.07,650.37,394.98,642.16,391.91z"/>
<path class="st29" d="M511.29,365.49v-16.4h-11.65v16.56c-6.13,2.49-10.47,8.64-10.47,15.84c0,9.41,7.39,17.03,16.5,17.03
	c9.11,0,16.5-7.63,16.5-17.03C522.18,374.12,517.63,367.87,511.29,365.49z"/>
<path class="st29" d="M547.44,376.39v-16.4H535.8v16.56c-6.13,2.49-10.47,8.64-10.47,15.84c0,9.41,7.39,17.03,16.5,17.03
	c9.11,0,16.5-7.63,16.5-17.03C558.33,385.02,553.79,378.76,547.44,376.39z"/>
<g>
	<path class="st30" d="M535.79,412.44v-25.58h-18.16v25.82c-9.56,3.88-16.33,13.46-16.33,24.7c0,14.67,11.52,26.56,25.73,26.56
		c14.21,0,25.73-11.89,25.73-26.56C552.77,425.9,545.69,416.14,535.79,412.44z"/>
	<path class="st30" d="M592.17,429.43v-25.58h-18.16v25.82c-9.56,3.88-16.33,13.46-16.33,24.7c0,14.67,11.52,26.56,25.73,26.56
		c14.21,0,25.73-11.89,25.73-26.56C609.14,442.89,602.06,433.13,592.17,429.43z"/>
	<path class="st30" d="M424.92,379.92V356.6h-16.56v23.55c-8.71,3.54-14.89,12.28-14.89,22.53c0,13.38,10.51,24.22,23.47,24.22
		s23.47-10.84,23.47-24.22C440.4,392.2,433.94,383.3,424.92,379.92z"/>
	<path class="st30" d="M476.33,395.42v-23.33h-16.56v23.55c-8.71,3.54-14.89,12.28-14.89,22.53c0,13.38,10.51,24.22,23.47,24.22
		s23.47-10.84,23.47-24.22C491.81,407.69,485.36,398.8,476.33,395.42z"/>
	<path class="st30" d="M326.49,355.2V335.4h-14.05v19.98c-7.4,3-12.64,10.42-12.64,19.12c0,11.35,8.92,20.55,19.91,20.55
		s19.91-9.2,19.91-20.55C339.63,365.61,334.15,358.06,326.49,355.2z"/>
	<path class="st30" d="M370.12,368.35v-19.79h-14.05v19.98c-7.4,3-12.64,10.42-12.64,19.12c0,11.35,8.92,20.55,19.91,20.55
		c11,0,19.91-9.2,19.91-20.55C383.26,378.76,377.78,371.21,370.12,368.35z"/>
</g>
</svg>
