<?xml version="1.0" encoding="utf-8"?>
<!-- Generator: Adobe Illustrator 23.0.1, SVG Export Plug-In . SVG Version: 6.00 Build 0)  -->
<svg version="1.1" id="Layer_1" xmlns="http://www.w3.org/2000/svg" xmlns:xlink="http://www.w3.org/1999/xlink" x="0px" y="0px"
	 viewBox="0 0 1080 555.1" style="enable-background:new 0 0 1080 555.1;" xml:space="preserve">
<style type="text/css">
	.st0{enable-background:new    ;}
	.st1{fill:#345D96;}
	.st2{fill:#254676;}
	.st3{fill:#3A67A5;}
	.st4{fill:#2C4F83;}
	.st5{fill:#274878;}
	.st6{fill:#2A76B1;}
	.st7{fill:#195480;}
	.st8{fill:#DDDDDD;}
	.st9{fill:#8E8E8E;}
	.st10{fill:#1A1A1A;}
	.st11{fill:#294B7D;}
	.st12{fill:#7BB037;}
	.st13{fill:#4D4D4D;}
	.st14{fill:#E0B50A;}
	.st15{fill:#9E8100;}
</style>
<g>
	<g>
		<g>
			<g class="st0">
				<g>
					<path class="st1" d="M1031.5,105.5c11.9,0,21.5,9.6,21.5,21.5v322.4c0,11.9-9.6,21.5-21.5,21.5H53.4
						c-11.9,0-21.5-9.6-21.5-21.5V127.1c0-11.9,9.6-21.5,21.5-21.5L1031.5,105.5L1031.5,105.5z"/>
				</g>
				<g>
					<polygon class="st2" points="53.4,105.5 1031.5,105.5 1031.5,105.5 					"/>
				</g>
			</g>
		</g>
	</g>
	<g>
		<g>
			<g class="st0">
				<g>
					<polygon class="st3" points="281.9,105.5 764.9,471 82.2,471 82.2,105.5 					"/>
				</g>
				<g>
					<polygon class="st4" points="281.9,105.5 281.9,105.5 764.9,471 764.9,471 					"/>
				</g>
				<g>
					<polygon class="st5" points="82.2,105.5 281.9,105.5 281.9,105.5 					"/>
				</g>
			</g>
		</g>
	</g>
	<g>
		<g>
			<g>
				<path class="st3" d="M82.2,105.5c155.5,0,682.7,365.4,501.3,365.4c-201.2,0-413,0-501.3,0c-3.3,0-21-0.3-35.2-11.9
					c-9-7.3-14.6-17.5-14.6-28.7V146.1C32.4,123.7,54.7,105.5,82.2,105.5z"/>
			</g>
		</g>
	</g>
	<g>
		<g>
			<g class="st0">
				<g>
					<rect x="32.4" y="314.6" class="st6" width="1021.2" height="11.3"/>
				</g>
				<g>
					<polygon class="st7" points="32.4,314.6 1053.6,314.6 1053.6,314.6 					"/>
				</g>
			</g>
		</g>
	</g>
	<g>
		<g>
			<g class="st0">
				<g>
					<rect x="32.4" y="335.4" class="st8" width="1021.2" height="11.3"/>
				</g>
				<g>
					<polygon class="st9" points="32.4,335.4 1053.6,335.4 1053.6,335.4 					"/>
				</g>
			</g>
		</g>
	</g>
	<g>
		<g>
			<g class="st0">
				<g>
					<rect x="32.4" y="356.3" class="st6" width="1021.2" height="11.3"/>
				</g>
				<g>
					<polygon class="st7" points="32.4,356.3 1053.6,356.3 1053.6,356.3 					"/>
				</g>
			</g>
		</g>
	</g>
	<g>
		<g>
			<g class="st0">
				<g>
					<path class="st10" d="M770.8,163.4c5.1,0,9.3,4.2,9.3,9.3v79.1c0,5.1-4.2,9.3-9.3,9.3H261.9c-5.1,0-9.3-4.2-9.3-9.3v-79.1
						c0-5.1,4.2-9.3,9.3-9.3H770.8z"/>
				</g>
				<g>
					<polygon class="st10" points="261.9,163.4 770.8,163.4 770.8,163.4 					"/>
				</g>
			</g>
		</g>
	</g>
	<g>
		<g>
			<g class="st0">
				<g>
					<path class="st11" d="M851.3,181.9c16.7,0,30.3,13.6,30.3,30.3c0,16.7-13.6,30.3-30.3,30.3c-16.7,0-30.3-13.6-30.3-30.3
						C821,195.5,834.6,181.9,851.3,181.9z"/>
				</g>
				<g>
					<path class="st12" d="M851.3,165.9c25.5,0,46.3,20.8,46.3,46.3c0,25.5-20.8,46.3-46.3,46.3c-25.5,0-46.3-20.8-46.3-46.3
						S825.8,165.9,851.3,165.9z M851.3,242.5c16.7,0,30.3-13.6,30.3-30.3c0-16.7-13.6-30.3-30.3-30.3c-16.7,0-30.3,13.6-30.3,30.3
						C821,228.9,834.6,242.5,851.3,242.5"/>
				</g>
			</g>
		</g>
	</g>
	<g>
		<g>
			<g class="st0">
				<g>
					<rect x="82.2" y="471" class="st13" width="922.2" height="13.9"/>
				</g>
				<g>
					<polygon class="st13" points="82.2,471 1004.4,471 1004.4,471 					"/>
				</g>
			</g>
		</g>
	</g>
	<g>
		<g>
			<g class="st0">
				<g>
					<rect x="284.3" y="197.1" class="st14" width="26.1" height="26.1"/>
				</g>
				<g>
					<polygon class="st15" points="284.3,197.1 310.4,197.1 310.4,197.1 					"/>
				</g>
			</g>
		</g>
	</g>
</g>
</svg>
