<?xml version="1.0" encoding="utf-8"?>
<!-- Generator: Adobe Illustrator 23.1.0, SVG Export Plug-In . SVG Version: 6.00 Build 0)  -->
<svg version="1.1" id="Layer_1" xmlns="http://www.w3.org/2000/svg" xmlns:xlink="http://www.w3.org/1999/xlink" x="0px" y="0px"
	 viewBox="0 0 1080 1080" style="enable-background:new 0 0 1080 1080;" xml:space="preserve">
<style type="text/css">
	.st0{opacity:0.2;}
	.st1{fill:#FFCD05;}
	.st2{fill:#E6E7E8;}
	.st3{opacity:0.5;fill:#E6E7E8;}
	.st4{enable-background:new    ;}
	.st5{fill:#345D96;}
	.st6{fill:#254676;}
	.st7{fill:#3A67A5;}
	.st8{fill:#2C4F83;}
	.st9{fill:#274878;}
	.st10{fill:#2A76B1;}
	.st11{fill:#195480;}
	.st12{fill:#DDDDDD;}
	.st13{fill:#8E8E8E;}
	.st14{fill:#1A1A1A;}
	.st15{fill:#294B7D;}
	.st16{fill:#7BB037;}
	.st17{fill:#4D4D4D;}
	.st18{fill:#E0B50A;}
	.st19{fill:#9E8100;}
	.st20{fill:#E6E7E8;stroke:#6D6E71;stroke-width:10;stroke-miterlimit:10;}
	.st21{fill:#6D6E71;stroke:#6D6E71;stroke-miterlimit:10;}
	.st22{fill:#FFFFFF;}
	.st23{fill:#414042;}
	.st24{fill:#E6E7E8;stroke:#FFFFFF;stroke-miterlimit:10;}
</style>
<g class="st0">
	<path class="st1" d="M946.41,458.63c0,218.36-187.89,395.38-419.66,395.38c-288.47,0-475.52-313.63-419.66-395.38
		c41.99-61.45,210.82,23.38,320.8-65.1c123.3-99.19,19.33-292.86,98.86-330.28C620.17,19.29,946.41,200.63,946.41,458.63z"/>
	<path class="st2" d="M947.41,458.63c0.14,27.37-2.7,54.76-8.41,81.57c-5.71,26.81-14.32,53.01-25.58,78.07
		c-11.26,25.05-25.11,48.99-41.35,71.26c-16.19,22.29-34.65,42.99-55.03,61.68c-20.37,18.69-42.61,35.42-66.32,49.83
		c-23.72,14.38-48.85,26.54-74.97,36.12c-26.12,9.59-53.2,16.64-80.71,21.06c-3.42,0.68-6.89,1-10.34,1.48l-10.37,1.34
		c-3.45,0.51-6.93,0.74-10.4,1.02l-10.42,0.83c-1.74,0.12-3.47,0.3-5.21,0.38l-5.23,0.16l-10.45,0.32l-5.23,0.16
		c-1.74,0.03-3.5-0.02-5.24-0.03c-3.5-0.06-7-0.03-10.49-0.15c-13.99-0.46-27.94-1.73-41.81-3.58l-10.38-1.53l-10.33-1.86
		l-2.58-0.47l-2.57-0.54l-5.13-1.1l-5.13-1.1l-5.1-1.25l-5.09-1.26l-2.55-0.63l-2.53-0.71l-10.09-2.87l-10-3.17
		c-1.67-0.51-3.32-1.08-4.97-1.67l-4.95-1.73c-13.17-4.69-26.13-9.97-38.79-15.85c-12.66-5.91-25-12.45-37.06-19.47
		c-2.99-1.79-6.03-3.51-8.98-5.36l-8.86-5.55l-8.72-5.76c-2.91-1.92-5.73-3.96-8.6-5.94c-22.74-16.1-44.15-34.02-63.96-53.54
		c-19.79-19.54-38.08-40.57-54.57-62.96c-16.47-22.4-31.17-46.16-43.32-71.33c-6.04-12.6-11.51-25.52-15.9-38.91l-1.63-5.03
		c-0.53-1.68-0.99-3.39-1.49-5.08c-1.03-3.38-1.84-6.84-2.72-10.27c-0.42-1.72-0.76-3.47-1.15-5.21l-0.56-2.61l-0.48-2.64
		c-0.31-1.76-0.64-3.51-0.92-5.28L90,514.1c-0.83-7.15-1.26-14.42-0.97-21.79c0.31-7.37,1.4-14.87,3.71-22.25
		c0.24-0.93,0.61-1.84,0.95-2.75l1.04-2.74c0.31-0.92,0.8-1.8,1.22-2.69l1.31-2.67c0.95-1.75,2.07-3.44,3.11-5.14
		c1.21-1.62,2.37-3.28,3.75-4.77c1.3-1.56,2.79-2.93,4.24-4.34c1.54-1.29,3.06-2.63,4.71-3.74c1.6-1.21,3.31-2.19,4.99-3.22
		c1.73-0.9,3.44-1.88,5.21-2.63c7.04-3.24,14.3-5.1,21.46-6.42c7.18-1.29,14.29-1.91,21.34-2.28c14.1-0.68,27.93-0.22,41.65,0.36
		c13.71,0.61,27.31,1.4,40.86,1.93c13.55,0.54,27.04,0.81,40.47,0.51c26.81-0.64,53.55-3.62,78.7-11.69
		c12.57-3.97,24.66-9.29,36.01-15.87c11.31-6.62,21.88-14.57,31.31-23.65c4.74-4.52,9.1-9.41,13.23-14.47
		c4.11-5.09,7.8-10.5,11.23-16.07c3.45-5.57,6.41-11.44,9.13-17.42c1.38-2.98,2.58-6.05,3.81-9.11c1.13-3.1,2.28-6.19,3.26-9.35
		c4.08-12.58,6.82-25.64,8.71-38.87c1.84-13.25,2.84-26.66,3.27-40.16c0.46-13.49,0.38-27.06,0.22-40.67
		c-0.17-13.62-0.46-27.3-0.28-41.08c0.21-13.77,0.79-27.7,3.34-41.65c1.31-6.96,3.08-13.95,5.92-20.7
		c2.85-6.71,6.68-13.28,11.99-18.69c2.58-2.76,5.57-5.12,8.68-7.23c1.6-0.98,3.17-2.03,4.86-2.83c0.84-0.42,1.66-0.87,2.51-1.25
		l2.57-1.06c6.88-2.76,14.04-4.24,21.14-5c7.11-0.74,14.22-0.81,21.23-0.31c7.01,0.48,13.97,1.3,20.81,2.58
		c3.45,0.55,6.82,1.36,10.23,2.04l5.06,1.23c1.69,0.41,3.37,0.82,5.03,1.3l5.01,1.38c1.67,0.46,3.31,1,4.97,1.5
		c3.32,0.98,6.59,2.09,9.86,3.19c13.08,4.44,25.84,9.7,38.32,15.49c24.96,11.61,48.79,25.44,71.5,40.84
		c22.69,15.42,44.26,32.46,64.42,51.02c20.18,18.52,39.02,38.52,56.06,59.95c17.05,21.42,32.25,44.3,45.1,68.46
		c12.76,24.2,23.07,49.71,30.2,76.14C943.51,403.92,947.23,431.25,947.41,458.63z M945.41,458.63
		c-0.01-27.21-3.56-54.41-10.59-80.72c-7.08-26.29-17.42-51.67-30.29-75.66c-12.95-23.96-28.42-46.5-45.59-67.6
		c-17.24-21.06-36.34-40.55-56.67-58.6c-20.37-18.01-42.1-34.46-64.86-49.26c-22.76-14.79-46.6-27.92-71.34-38.89
		c-12.37-5.48-24.98-10.4-37.82-14.51c-12.84-4.09-25.88-7.54-39.07-9.68c-6.59-1.14-13.22-1.83-19.82-2.2
		c-6.61-0.38-13.21-0.22-19.65,0.54c-12.84,1.5-25.31,5.81-33.59,14.87c-4.24,4.39-7.37,9.85-9.79,15.68
		c-2.4,5.86-3.96,12.2-5.1,18.64c-2.23,12.94-2.69,26.41-2.76,39.9c-0.03,27.03,1.57,54.41,0.89,81.99
		c-0.3,13.79-1.18,27.64-2.96,41.45c-1.83,13.8-4.56,27.58-8.77,41.02c-1.01,3.37-2.21,6.69-3.38,10.01
		c-1.28,3.29-2.53,6.59-3.99,9.82c-2.85,6.47-6,12.83-9.67,18.91c-3.65,6.08-7.61,12-12.02,17.58c-4.43,5.55-9.12,10.91-14.21,15.87
		c-10.15,9.93-21.48,18.6-33.66,25.86c-12.2,7.22-25.2,13.05-38.62,17.41c-13.4,4.44-27.18,7.44-41.01,9.5
		c-13.84,2.05-27.75,3.07-41.6,3.53c-27.72,0.87-55.22-0.77-82.34-1.78c-13.55-0.47-27.03-0.78-40.2-0.03
		c-6.57,0.39-13.08,1.03-19.33,2.21c-6.23,1.2-12.27,2.85-17.62,5.38c-1.37,0.58-2.61,1.34-3.91,2.01c-1.2,0.78-2.47,1.49-3.57,2.36
		c-1.18,0.8-2.2,1.75-3.28,2.64c-0.97,0.99-2.01,1.92-2.88,3.01c-3.68,4.13-6.21,9.34-7.95,14.98c-1.71,5.67-2.6,11.79-2.79,18.05
		c-0.19,6.27,0.24,12.66,1.04,19.05c0.79,6.4,2.17,12.79,3.69,19.14c0.86,3.17,1.63,6.35,2.64,9.49c0.49,1.57,0.93,3.15,1.45,4.72
		l1.58,4.69c4.26,12.5,9.6,24.71,15.5,36.64c11.86,23.86,26.3,46.54,42.44,67.9c16.15,21.36,34.05,41.42,53.35,59.98
		c19.24,18.63,40.02,35.62,61.93,50.92c21.86,15.38,45.13,28.65,69.23,40.02c12.08,5.64,24.42,10.68,36.95,15.16l4.71,1.66
		c1.57,0.56,3.14,1.11,4.73,1.6l9.51,3.03c6.4,1.82,12.77,3.71,19.24,5.28l4.83,1.23l4.87,1.08l4.87,1.08l2.44,0.54l2.45,0.46
		l9.8,1.85l9.85,1.53c13.16,1.86,26.41,3.17,39.71,3.71c26.58,0.93,53.42-0.3,79.86-4.02c26.46-3.7,52.6-9.8,78-18.26
		c25.39-8.47,50.07-19.25,73.49-32.39c23.44-13.1,45.68-28.43,66.22-45.87c20.53-17.44,39.4-36.93,56.06-58.22
		c16.62-21.31,31.13-44.35,42.93-68.77c11.81-24.41,20.93-50.16,27.07-76.65c0.46-1.64,0.73-3.32,1.07-4.98l0.99-5l1.98-10
		c1.06-6.71,1.96-13.45,2.92-20.19l1.77-20.33L945.41,458.63z"/>
</g>
<path class="st3" d="M133.59,993.2c0-16.37,187.89-29.64,419.66-29.64c288.47,0,475.52,23.51,419.66,29.64
	c-41.99,4.61-210.82-1.75-320.8,4.88c-123.3,7.44-19.33,21.95-98.86,24.76C459.83,1026.13,133.59,1012.54,133.59,993.2z"/>
<g>
	<g>
		<g>
			<g class="st4">
				<g>
					<path class="st5" d="M794.14,233.76c11.88,0,21.52,9.63,21.52,21.52v137.53c0,11.89-9.64,21.53-21.52,21.53H332.57
						c-11.89,0-21.53-9.64-21.53-21.53V255.28c0-11.89,9.64-21.52,21.53-21.52H794.14z"/>
				</g>
				<g>
					<rect x="332.57" y="233.76" class="st6" width="461.57" height="0"/>
				</g>
			</g>
		</g>
	</g>
	<g>
		<g>
			<g class="st4">
				<g>
					<polygon class="st7" points="434.61,233.76 673.28,414.34 335.94,414.34 335.94,233.76 					"/>
				</g>
				<g>
					<polygon class="st8" points="434.61,233.76 434.61,233.76 673.28,414.34 673.28,414.34 					"/>
				</g>
				<g>
					<rect x="335.94" y="233.76" class="st9" width="98.68" height="0"/>
				</g>
			</g>
		</g>
	</g>
	<g>
		<g>
			<g>
				<path class="st7" d="M335.94,233.76c76.85,0,337.35,180.58,247.73,180.58c-99.43,0-204.09,0-247.73,0
					c-1.64,0-10.37-0.14-17.41-5.87c-4.46-3.63-7.22-8.64-7.22-14.17V253.79C311.3,242.72,322.34,233.76,335.94,233.76z"/>
			</g>
		</g>
	</g>
	<g>
		<g>
			<g class="st4">
				<g>
					<rect x="311.3" y="337.08" class="st10" width="504.62" height="5.58"/>
				</g>
				<g>
					<rect x="311.3" y="337.08" class="st11" width="504.62" height="0"/>
				</g>
			</g>
		</g>
	</g>
	<g>
		<g>
			<g class="st4">
				<g>
					<rect x="311.3" y="347.31" class="st12" width="504.62" height="5.59"/>
				</g>
				<g>
					<rect x="311.3" y="347.31" class="st13" width="504.62" height="0"/>
				</g>
			</g>
		</g>
	</g>
	<g>
		<g>
			<g class="st4">
				<g>
					<rect x="311.3" y="357.67" class="st10" width="504.62" height="5.59"/>
				</g>
				<g>
					<rect x="311.3" y="357.67" class="st11" width="504.62" height="0"/>
				</g>
			</g>
		</g>
	</g>
	<g>
		<g>
			<g class="st4">
				<g>
					<path class="st14" d="M671.48,262.33c5.12,0,9.27,4.15,9.27,9.27v29.73c0,5.12-4.15,9.27-9.27,9.27H429.44
						c-5.12,0-9.27-4.15-9.27-9.27V271.6c0-5.12,4.15-9.27,9.27-9.27H671.48z"/>
				</g>
				<g>
					<rect x="429.44" y="262.33" class="st14" width="242.05" height="0"/>
				</g>
			</g>
		</g>
	</g>
	<g>
		<g>
			<g class="st4">
				<g>
					<path class="st15" d="M715.99,270.03c9.05,0,16.43,7.37,16.43,16.42c0,9.06-7.37,16.43-16.43,16.43
						c-9.06,0-16.43-7.37-16.43-16.43C699.55,277.4,706.92,270.03,715.99,270.03z"/>
				</g>
				<g>
					<path class="st16" d="M715.99,265.04c11.81,0,21.43,9.61,21.43,21.42c0,11.82-9.62,21.43-21.43,21.43
						c-11.82,0-21.43-9.61-21.43-21.43C694.56,274.65,704.17,265.04,715.99,265.04z M715.99,302.89c9.05,0,16.43-7.37,16.43-16.43
						c0-9.05-7.37-16.42-16.43-16.42c-9.06,0-16.43,7.37-16.43,16.42C699.55,295.52,706.92,302.89,715.99,302.89"/>
				</g>
			</g>
		</g>
	</g>
	<g>
		<g>
			<g class="st4">
				<g>
					<rect x="335.94" y="414.34" class="st17" width="455.7" height="6.88"/>
				</g>
				<g>
					<rect x="335.94" y="414.34" class="st17" width="455.7" height="0"/>
				</g>
			</g>
		</g>
	</g>
	<g>
		<g>
			<g class="st4">
				<g>
					<rect x="435.8" y="278.98" class="st18" width="12.91" height="12.92"/>
				</g>
				<g>
					<rect x="435.8" y="278.98" class="st19" width="12.91" height="0"/>
				</g>
			</g>
		</g>
	</g>
</g>
<g>
	<path class="st20" d="M667.42,912.66H455.76c-5.47,0-9.9-4.43-9.9-9.9V522.71c0-5.47,4.43-9.9,9.9-9.9h211.65
		c5.47,0,9.9,4.43,9.9,9.9v380.05C677.32,908.23,672.88,912.66,667.42,912.66z"/>
	<g>
		<g>
			<path class="st21" d="M509.54,493.93v-21.82h-15.49v22.03c-8.15,3.31-13.93,11.49-13.93,21.07c0,12.51,9.83,22.66,21.95,22.66
				s21.95-10.14,21.95-22.66C524.02,505.41,517.98,497.09,509.54,493.93z"/>
			<path class="st21" d="M634.51,493.93v-21.82h-15.49v22.03c-8.15,3.31-13.93,11.49-13.93,21.07c0,12.51,9.83,22.66,21.95,22.66
				s21.95-10.14,21.95-22.66C648.99,505.41,642.95,497.09,634.51,493.93z"/>
		</g>
		<path class="st22" d="M654.78,907.7H469.27c-8.17,0-14.79-6.13-14.79-13.7V540.25c0-7.57,6.62-13.7,14.79-13.7l200.3,367.45
			C669.57,901.57,662.95,907.7,654.78,907.7z"/>
		<rect x="438.53" y="505.38" class="st23" width="246.82" height="54.43"/>
		<path class="st24" d="M582.59,735.8c-3.02-1.65-5.68-3.1-8.34-4.56c-5.7-3.13-11.41-6.22-17.07-9.42
			c-1.25-0.71-1.73-0.4-2.34,0.78c-5.8,11.08-11.64,22.14-17.47,33.2c-0.3,0.56-0.62,1.11-0.93,1.66c-0.15-0.04-0.3-0.08-0.46-0.12
			c2.93-20.4,5.85-40.8,8.83-61.53c9.33,4.99,18.41,9.86,27.65,14.81c6.09-11.34,12.12-22.58,18.15-33.82
			c0.18,0.05,0.36,0.11,0.53,0.16C588.32,696.43,585.48,715.9,582.59,735.8z"/>
	</g>
</g>
<g>
	<g>
		<g>
			<g>
				<path class="st17" d="M280.51,225.29c33.1,0,7.81,51.18,15.27,758c-2.06-0.14-4.04-0.2-5.92-0.2c-4.71,0-8.88,0.37-12.58,0.74
					c-3.69,0.37-6.92,0.73-9.72,0.73c-33.11,0-7.81-51.13-15.27-758.02c2.09,0.15,4.08,0.21,5.99,0.21c4.68,0,8.82-0.36,12.51-0.73
					C274.48,225.66,277.7,225.29,280.51,225.29z"/>
			</g>
		</g>
	</g>
	<g>
		<g>
			<g>
				<path class="st17" d="M858.49,225.29c33.1,0,7.81,51.18,15.27,758c-2.06-0.14-4.04-0.2-5.92-0.2c-4.71,0-8.88,0.37-12.58,0.74
					c-3.69,0.37-6.92,0.73-9.72,0.73c-33.12,0-7.81-51.13-15.26-758.02c2.09,0.15,4.08,0.21,5.99,0.21c4.68,0,8.82-0.36,12.51-0.73
					C852.46,225.66,855.68,225.29,858.49,225.29z"/>
			</g>
		</g>
	</g>
	<g>
		<g>
			<g class="st4">
				<g>
					<rect x="271.87" y="420.35" class="st17" width="580.14" height="43.48"/>
				</g>
				<g>
					<rect x="271.87" y="420.35" class="st17" width="580.14" height="0"/>
				</g>
			</g>
		</g>
	</g>
	<g>
		<g>
			<g class="st4">
				<g>
					<rect x="260.57" y="909.71" class="st17" width="580.14" height="43.48"/>
				</g>
				<g>
					<rect x="260.57" y="909.71" class="st17" width="580.14" height="0"/>
				</g>
			</g>
		</g>
	</g>
</g>
</svg>
