<?xml version="1.0" encoding="utf-8"?>
<!-- Generator: Adobe Illustrator 23.1.0, SVG Export Plug-In . SVG Version: 6.00 Build 0)  -->
<svg version="1.1" id="Layer_1" xmlns="http://www.w3.org/2000/svg" xmlns:xlink="http://www.w3.org/1999/xlink" x="0px" y="0px"
	 viewBox="0 0 1080 1080" style="enable-background:new 0 0 1080 1080;" xml:space="preserve">
<style type="text/css">
	.st0{opacity:0.2;}
	.st1{fill:#FFCD05;}
	.st2{fill:#E6E7E8;}
	.st3{opacity:0.5;fill:#E6E7E8;}
	.st4{enable-background:new    ;}
	.st5{fill:#345D96;}
	.st6{fill:#254676;}
	.st7{fill:#3A67A5;}
	.st8{fill:#2C4F83;}
	.st9{fill:#274878;}
	.st10{fill:#2A76B1;}
	.st11{fill:#195480;}
	.st12{fill:#DDDDDD;}
	.st13{fill:#8E8E8E;}
	.st14{fill:#1A1A1A;}
	.st15{fill:#294B7D;}
	.st16{fill:#7BB037;}
	.st17{fill:#4D4D4D;}
	.st18{fill:#E0B50A;}
	.st19{fill:#9E8100;}
	.st20{fill:#E6E7E8;stroke:#6D6E71;stroke-width:10;stroke-miterlimit:10;}
	.st21{fill:#6D6E71;stroke:#6D6E71;stroke-miterlimit:10;}
	.st22{fill:#FFFFFF;}
	.st23{fill:#414042;}
	.st24{fill:#E6E7E8;stroke:#FFFFFF;stroke-miterlimit:10;}
</style>
<g class="st0">
	<path class="st1" d="M97.22,458.63c0,218.36,187.89,395.38,419.66,395.38c288.47,0,475.52-313.63,419.66-395.38
		c-41.99-61.45-210.82,23.38-320.8-65.1c-123.3-99.19-19.33-292.86-98.86-330.28C423.46,19.29,97.22,200.63,97.22,458.63z"/>
	<path class="st2" d="M98.22,458.63l0.66,20.4l1.77,20.33c0.96,6.73,1.86,13.48,2.92,20.19l1.98,10l0.99,5
		c0.34,1.66,0.61,3.34,1.07,4.98c6.14,26.48,15.26,52.24,27.07,76.65c11.8,24.42,26.31,47.46,42.93,68.77
		c16.66,21.29,35.53,40.78,56.06,58.22c20.54,17.44,42.79,32.78,66.22,45.87c23.42,13.14,48.1,23.92,73.49,32.39
		c25.4,8.47,51.54,14.57,78,18.26c26.44,3.72,53.28,4.95,79.86,4.02c13.29-0.54,26.54-1.85,39.71-3.71l9.85-1.53l9.8-1.85l2.45-0.46
		l2.44-0.54l4.87-1.08l4.87-1.08l4.83-1.23c6.46-1.57,12.84-3.46,19.24-5.28l9.51-3.03c1.59-0.49,3.16-1.04,4.73-1.6l4.71-1.66
		c12.53-4.49,24.87-9.53,36.95-15.16c24.1-11.37,47.37-24.64,69.23-40.02c21.91-15.3,42.69-32.29,61.93-50.92
		c19.29-18.57,37.19-38.62,53.35-59.98c16.13-21.36,30.57-44.04,42.44-67.9c5.9-11.93,11.24-24.14,15.5-36.64l1.58-4.69
		c0.52-1.57,0.96-3.15,1.45-4.72c1-3.14,1.78-6.32,2.64-9.49c1.52-6.35,2.9-12.74,3.69-19.14c0.8-6.39,1.23-12.78,1.04-19.05
		c-0.2-6.26-1.08-12.38-2.79-18.05c-1.74-5.65-4.27-10.85-7.95-14.98c-0.86-1.09-1.9-2.02-2.88-3.01c-1.08-0.89-2.1-1.85-3.28-2.64
		c-1.11-0.87-2.37-1.58-3.57-2.36c-1.3-0.67-2.53-1.42-3.91-2.01c-5.35-2.53-11.39-4.18-17.62-5.38
		c-6.25-1.18-12.75-1.82-19.33-2.21c-13.17-0.75-26.65-0.44-40.2,0.03c-27.11,1-54.62,2.65-82.34,1.78
		c-13.86-0.46-27.76-1.48-41.6-3.53c-13.83-2.06-27.61-5.07-41.01-9.5c-13.41-4.36-26.41-10.2-38.62-17.41
		c-12.18-7.27-23.51-15.93-33.66-25.86c-5.09-4.95-9.78-10.32-14.21-15.87c-4.41-5.58-8.37-11.5-12.02-17.58
		c-3.67-6.08-6.82-12.45-9.67-18.91c-1.45-3.23-2.71-6.53-3.99-9.82c-1.18-3.32-2.37-6.64-3.38-10.01
		c-4.21-13.44-6.94-27.22-8.77-41.02c-1.77-13.81-2.66-27.66-2.96-41.45c-0.68-27.58,0.92-54.96,0.89-81.99
		c-0.07-13.49-0.53-26.96-2.76-39.9c-1.14-6.45-2.7-12.78-5.1-18.64c-2.42-5.84-5.55-11.29-9.79-15.68
		c-8.27-9.06-20.75-13.37-33.59-14.87c-6.44-0.76-13.04-0.92-19.65-0.54c-6.61,0.37-13.24,1.05-19.82,2.2
		c-13.19,2.13-26.24,5.58-39.07,9.68c-12.84,4.11-25.45,9.03-37.82,14.51c-24.75,10.97-48.58,24.1-71.34,38.89
		c-22.76,14.8-44.49,31.25-64.86,49.26c-20.33,18.04-39.43,37.54-56.67,58.6c-17.17,21.1-32.64,43.64-45.59,67.6
		c-12.87,23.99-23.21,49.36-30.29,75.66C101.78,404.22,98.23,431.43,98.22,458.63z M96.22,458.63c0.18-27.39,3.9-54.72,10.97-81.15
		c7.13-26.43,17.44-51.94,30.2-76.14c12.85-24.16,28.05-47.05,45.1-68.46c17.04-21.43,35.87-41.42,56.06-59.95
		c20.15-18.56,41.73-35.6,64.42-51.02c22.7-15.4,46.53-29.23,71.5-40.84c12.48-5.79,25.24-11.04,38.32-15.49
		c3.27-1.1,6.54-2.22,9.86-3.19c1.66-0.5,3.3-1.03,4.97-1.5l5.01-1.38c1.66-0.48,3.35-0.89,5.03-1.3l5.06-1.23
		c3.41-0.68,6.79-1.5,10.23-2.04c6.84-1.28,13.8-2.1,20.81-2.58c7.01-0.49,14.11-0.43,21.23,0.31c7.11,0.76,14.27,2.23,21.14,5
		l2.57,1.06c0.85,0.38,1.67,0.84,2.51,1.25c1.69,0.8,3.26,1.84,4.86,2.83c3.11,2.11,6.1,4.47,8.68,7.23
		c5.31,5.41,9.14,11.97,11.99,18.69c2.84,6.75,4.61,13.74,5.92,20.7c2.54,13.96,3.12,27.88,3.34,41.65
		c0.18,13.78-0.12,27.46-0.28,41.08c-0.17,13.62-0.24,27.18,0.22,40.67c0.43,13.49,1.43,26.91,3.27,40.16
		c1.89,13.23,4.63,26.29,8.71,38.87c0.98,3.16,2.13,6.25,3.26,9.35c1.23,3.06,2.43,6.13,3.81,9.11c2.72,5.98,5.68,11.85,9.13,17.42
		c3.43,5.58,7.12,10.99,11.23,16.07c4.13,5.06,8.49,9.95,13.23,14.47c9.43,9.08,20,17.02,31.31,23.65
		c11.34,6.58,23.43,11.9,36.01,15.87c25.15,8.07,51.89,11.05,78.7,11.69c13.43,0.29,26.92,0.02,40.47-0.51
		c13.55-0.53,27.15-1.33,40.86-1.93c13.72-0.58,27.55-1.04,41.65-0.36c7.05,0.37,14.16,0.99,21.34,2.28
		c7.16,1.32,14.42,3.18,21.46,6.42c1.77,0.75,3.48,1.72,5.21,2.63c1.68,1.04,3.39,2.01,4.99,3.22c1.65,1.11,3.17,2.45,4.71,3.74
		c1.45,1.41,2.94,2.77,4.24,4.34c1.39,1.48,2.54,3.15,3.75,4.77c1.05,1.71,2.16,3.39,3.11,5.14l1.31,2.67
		c0.42,0.89,0.91,1.77,1.22,2.69l1.04,2.74c0.34,0.91,0.71,1.82,0.95,2.75c2.3,7.38,3.4,14.89,3.71,22.25
		c0.29,7.37-0.13,14.64-0.97,21.79l-0.72,5.34c-0.28,1.77-0.61,3.52-0.92,5.28l-0.48,2.64l-0.56,2.61
		c-0.38,1.74-0.73,3.49-1.15,5.21c-0.88,3.43-1.69,6.89-2.72,10.27c-0.5,1.69-0.96,3.4-1.49,5.08l-1.63,5.03
		c-4.39,13.39-9.86,26.31-15.9,38.91c-12.14,25.17-26.85,48.93-43.32,71.33c-16.49,22.39-34.78,43.42-54.57,62.96
		c-19.81,19.52-41.22,37.44-63.96,53.54c-2.87,1.98-5.69,4.02-8.6,5.94l-8.72,5.76l-8.86,5.55c-2.95,1.86-5.99,3.57-8.98,5.36
		c-12.05,7.02-24.4,13.56-37.06,19.47c-12.67,5.89-25.62,11.16-38.79,15.85l-4.95,1.73c-1.65,0.58-3.3,1.16-4.97,1.67l-10,3.17
		l-10.09,2.87l-2.53,0.71l-2.55,0.63l-5.09,1.26l-5.1,1.25l-5.13,1.1l-5.13,1.1l-2.57,0.54l-2.58,0.47l-10.33,1.86l-10.38,1.53
		c-13.87,1.85-27.82,3.12-41.81,3.58c-3.5,0.12-6.99,0.1-10.49,0.15c-1.75,0.01-3.5,0.06-5.24,0.03l-5.23-0.16l-10.45-0.32
		l-5.23-0.16c-1.74-0.09-3.48-0.26-5.21-0.38l-10.42-0.83c-3.47-0.29-6.95-0.51-10.4-1.02l-10.37-1.34
		c-3.45-0.48-6.92-0.8-10.34-1.48c-27.52-4.42-54.6-11.47-80.71-21.06c-26.12-9.58-51.25-21.74-74.97-36.12
		c-23.71-14.41-45.95-31.14-66.32-49.83c-20.38-18.69-38.84-39.39-55.03-61.68c-16.24-22.26-30.09-46.2-41.35-71.26
		c-11.26-25.05-19.87-51.26-25.58-78.07C98.93,513.4,96.08,486,96.22,458.63z"/>
</g>
<path class="st3" d="M133.59,993.2c0-16.37,187.89-29.64,419.66-29.64c288.47,0,475.52,23.51,419.66,29.64
	c-41.99,4.61-210.82-1.75-320.8,4.88c-123.3,7.44-19.33,21.95-98.86,24.76C459.83,1026.13,133.59,1012.54,133.59,993.2z"/>
<g>
	<g>
		<g>
			<g class="st4">
				<g>
					<path class="st5" d="M794.14,233.76c11.88,0,21.52,9.63,21.52,21.52v137.53c0,11.89-9.64,21.53-21.52,21.53H332.57
						c-11.89,0-21.53-9.64-21.53-21.53V255.28c0-11.89,9.64-21.52,21.53-21.52H794.14z"/>
				</g>
				<g>
					<rect x="332.57" y="233.76" class="st6" width="461.57" height="0"/>
				</g>
			</g>
		</g>
	</g>
	<g>
		<g>
			<g class="st4">
				<g>
					<polygon class="st7" points="434.61,233.76 673.28,414.34 335.94,414.34 335.94,233.76 					"/>
				</g>
				<g>
					<polygon class="st8" points="434.61,233.76 434.61,233.76 673.28,414.34 673.28,414.34 					"/>
				</g>
				<g>
					<rect x="335.94" y="233.76" class="st9" width="98.68" height="0"/>
				</g>
			</g>
		</g>
	</g>
	<g>
		<g>
			<g>
				<path class="st7" d="M335.94,233.76c76.85,0,337.35,180.58,247.73,180.58c-99.43,0-204.09,0-247.73,0
					c-1.64,0-10.37-0.14-17.41-5.87c-4.46-3.63-7.22-8.64-7.22-14.17V253.79C311.3,242.72,322.34,233.76,335.94,233.76z"/>
			</g>
		</g>
	</g>
	<g>
		<g>
			<g class="st4">
				<g>
					<rect x="311.3" y="337.08" class="st10" width="504.62" height="5.58"/>
				</g>
				<g>
					<rect x="311.3" y="337.08" class="st11" width="504.62" height="0"/>
				</g>
			</g>
		</g>
	</g>
	<g>
		<g>
			<g class="st4">
				<g>
					<rect x="311.3" y="347.31" class="st12" width="504.62" height="5.59"/>
				</g>
				<g>
					<rect x="311.3" y="347.31" class="st13" width="504.62" height="0"/>
				</g>
			</g>
		</g>
	</g>
	<g>
		<g>
			<g class="st4">
				<g>
					<rect x="311.3" y="357.67" class="st10" width="504.62" height="5.59"/>
				</g>
				<g>
					<rect x="311.3" y="357.67" class="st11" width="504.62" height="0"/>
				</g>
			</g>
		</g>
	</g>
	<g>
		<g>
			<g class="st4">
				<g>
					<path class="st14" d="M671.48,262.33c5.12,0,9.27,4.15,9.27,9.27v29.73c0,5.12-4.15,9.27-9.27,9.27H429.44
						c-5.12,0-9.27-4.15-9.27-9.27V271.6c0-5.12,4.15-9.27,9.27-9.27H671.48z"/>
				</g>
				<g>
					<rect x="429.44" y="262.33" class="st14" width="242.05" height="0"/>
				</g>
			</g>
		</g>
	</g>
	<g>
		<g>
			<g class="st4">
				<g>
					<path class="st15" d="M715.99,270.03c9.05,0,16.43,7.37,16.43,16.42c0,9.06-7.37,16.43-16.43,16.43
						c-9.06,0-16.43-7.37-16.43-16.43C699.55,277.4,706.92,270.03,715.99,270.03z"/>
				</g>
				<g>
					<path class="st16" d="M715.99,265.04c11.81,0,21.43,9.61,21.43,21.42c0,11.82-9.62,21.43-21.43,21.43
						c-11.82,0-21.43-9.61-21.43-21.43C694.56,274.65,704.17,265.04,715.99,265.04z M715.99,302.89c9.05,0,16.43-7.37,16.43-16.43
						c0-9.05-7.37-16.42-16.43-16.42c-9.06,0-16.43,7.37-16.43,16.42C699.55,295.52,706.92,302.89,715.99,302.89"/>
				</g>
			</g>
		</g>
	</g>
	<g>
		<g>
			<g class="st4">
				<g>
					<rect x="335.94" y="414.34" class="st17" width="455.7" height="6.88"/>
				</g>
				<g>
					<rect x="335.94" y="414.34" class="st17" width="455.7" height="0"/>
				</g>
			</g>
		</g>
	</g>
	<g>
		<g>
			<g class="st4">
				<g>
					<rect x="435.8" y="278.98" class="st18" width="12.91" height="12.92"/>
				</g>
				<g>
					<rect x="435.8" y="278.98" class="st19" width="12.91" height="0"/>
				</g>
			</g>
		</g>
	</g>
</g>
<g>
	<g>
		<path class="st20" d="M540.24,909.34H328.59c-5.47,0-9.9-4.43-9.9-9.9V519.38c0-5.47,4.43-9.9,9.9-9.9h211.65
			c5.47,0,9.9,4.43,9.9,9.9v380.05C550.15,904.9,545.71,909.34,540.24,909.34z"/>
		<g>
			<g>
				<path class="st21" d="M382.37,490.61v-21.82h-15.49v22.03c-8.15,3.31-13.93,11.49-13.93,21.07c0,12.51,9.83,22.66,21.95,22.66
					c12.12,0,21.95-10.14,21.95-22.66C396.85,502.09,390.81,493.76,382.37,490.61z"/>
				<path class="st21" d="M507.33,490.61v-21.82h-15.49v22.03c-8.15,3.31-13.93,11.49-13.93,21.07c0,12.51,9.83,22.66,21.95,22.66
					c12.12,0,21.95-10.14,21.95-22.66C521.82,502.09,515.78,493.76,507.33,490.61z"/>
			</g>
			<path class="st22" d="M527.61,904.38H342.1c-8.17,0-14.79-6.13-14.79-13.7V536.92c0-7.57,6.62-13.7,14.79-13.7l200.3,367.45
				C542.4,898.24,535.78,904.38,527.61,904.38z"/>
			<rect x="311.36" y="502.05" class="st23" width="246.82" height="54.43"/>
			<path class="st24" d="M455.42,732.47c-3.02-1.65-5.68-3.1-8.34-4.56c-5.7-3.13-11.41-6.22-17.07-9.42
				c-1.25-0.71-1.73-0.4-2.34,0.78c-5.8,11.08-11.64,22.14-17.47,33.2c-0.3,0.56-0.62,1.11-0.93,1.66c-0.15-0.04-0.3-0.08-0.46-0.12
				c2.93-20.4,5.85-40.8,8.83-61.53c9.33,4.99,18.41,9.86,27.65,14.81c6.09-11.34,12.12-22.58,18.15-33.82
				c0.18,0.05,0.36,0.11,0.53,0.16C461.14,693.1,458.31,712.58,455.42,732.47z"/>
		</g>
	</g>
	<g>
		<path class="st20" d="M798.11,909.34H586.45c-5.47,0-9.9-4.43-9.9-9.9V519.38c0-5.47,4.43-9.9,9.9-9.9h211.65
			c5.47,0,9.9,4.43,9.9,9.9v380.05C808.01,904.9,803.58,909.34,798.11,909.34z"/>
		<g>
			<g>
				<path class="st21" d="M640.23,490.61v-21.82h-15.49v22.03c-8.15,3.31-13.93,11.49-13.93,21.07c0,12.51,9.83,22.66,21.95,22.66
					s21.95-10.14,21.95-22.66C654.71,502.09,648.67,493.76,640.23,490.61z"/>
				<path class="st21" d="M765.2,490.61v-21.82h-15.49v22.03c-8.15,3.31-13.93,11.49-13.93,21.07c0,12.51,9.83,22.66,21.95,22.66
					s21.95-10.14,21.95-22.66C779.68,502.09,773.64,493.76,765.2,490.61z"/>
			</g>
			<path class="st22" d="M785.47,904.38H599.96c-8.17,0-14.79-6.13-14.79-13.7V536.92c0-7.57,6.62-13.7,14.79-13.7l200.3,367.45
				C800.27,898.24,793.64,904.38,785.47,904.38z"/>
			<rect x="569.22" y="502.05" class="st23" width="246.82" height="54.43"/>
			<path class="st24" d="M713.28,732.47c-3.02-1.65-5.68-3.1-8.34-4.56c-5.7-3.13-11.41-6.22-17.07-9.42
				c-1.25-0.71-1.73-0.4-2.34,0.78c-5.8,11.08-11.64,22.14-17.47,33.2c-0.3,0.56-0.62,1.11-0.93,1.66c-0.15-0.04-0.3-0.08-0.46-0.12
				c2.93-20.4,5.85-40.8,8.83-61.53c9.33,4.99,18.41,9.86,27.65,14.81c6.09-11.34,12.12-22.58,18.15-33.82
				c0.18,0.05,0.36,0.11,0.53,0.16C719.01,693.1,716.18,712.58,713.28,732.47z"/>
		</g>
	</g>
</g>
<g>
	<g>
		<g>
			<g>
				<path class="st17" d="M280.5,225.29c33.11-0.01,7.81,51.13,15.27,758.01c-2.07-0.14-4.04-0.2-5.93-0.2
					c-4.71,0-8.88,0.37-12.58,0.73c-3.69,0.37-6.92,0.73-9.72,0.73c-33.11,0-7.8-51.13-15.26-758.01c2.07,0.14,4.05,0.2,5.94,0.2
					c4.7,0,8.86-0.37,12.56-0.74C274.48,225.65,277.7,225.29,280.5,225.29z"/>
			</g>
		</g>
	</g>
	<g>
		<g>
			<g>
				<path class="st17" d="M858.48,225.29c33.11-0.01,7.81,51.13,15.27,758.01c-2.07-0.14-4.04-0.2-5.93-0.2
					c-4.71,0-8.88,0.37-12.58,0.73c-3.69,0.37-6.92,0.73-9.72,0.73c-33.11,0-7.8-51.13-15.26-758.01c2.07,0.14,4.05,0.2,5.94,0.2
					c4.7,0,8.86-0.37,12.56-0.74C852.46,225.65,855.68,225.29,858.48,225.29z"/>
			</g>
		</g>
	</g>
	<g>
		<g>
			<g class="st4">
				<g>
					<rect x="271.87" y="420.35" class="st17" width="580.14" height="43.49"/>
				</g>
				<g>
					<rect x="271.87" y="420.35" class="st17" width="580.14" height="0"/>
				</g>
			</g>
		</g>
	</g>
	<g>
		<g>
			<g class="st4">
				<g>
					<rect x="260.57" y="909.71" class="st17" width="580.13" height="43.49"/>
				</g>
				<g>
					<rect x="260.57" y="909.71" class="st17" width="580.13" height="0"/>
				</g>
			</g>
		</g>
	</g>
</g>
</svg>
